Genre:Adventure | Drama | Fantasy
Language:English 
http://www.imdb.com/title/tt1673434/
Source:ADTRG Thanks
Encoder:Tony

Format : AVI
Format/Info : Audio Video Interleave
File size : 1.02 GiB
Duration : 1h 42mn
Overall bit rate : 1 419 Kbps

Video
ID : 0
Format : MPEG-4 Visual
Format profile : Simple@L5
Format settings, BVOP : No
Format settings, QPel : No
Format settings, GMC : No warppoints
Format settings, Matrix : Default (H.263)
Codec ID : XVID
Codec ID/Hint : XviD
Duration : 1h 42mn
Bit rate : 1 217 Kbps
Width : 624 pixels
Height : 264 pixels
Display aspect ratio : 2.35:1
Frame rate : 25.000 fps
Color space : YUV
Chroma subsampling : 4:2:0
Bit depth : 8 bits
Scan type : Progressive
Compression mode : Lossy
Bits/(Pixel*Frame) : 0.296
Stream size : 893 MiB (86%)
Writing library : XviD 64

Audio
ID : 1
Format : AC-3
Format/Info : Audio Coding 3
Mode extension : CM (complete main)
Codec ID : 2000
Duration : 1h 42mn
Bit rate mode : Constant
Bit rate : 192 Kbps
Channel(s) : 2 channels
Channel positions : Front: L R
Sampling rate : 48.0 KHz
Bit depth : 16 bits
Compression mode : Lossy
Stream size : 141 MiB (14%)
Alignment : Split accross interleaves
Interleave, duration : 40 ms (1.00 video frame)
Interleave, preload duration : 500 ms


Plot:
After the birth of Renesmee, the Cullens gather other vampire clans in order to protect the child from a false allegation that puts the family in front of the Volturi.
 
http://lookpic.com/O/i2/1733/us9dTiC.png 
http://lookpic.com/O/i2/792/TLat4JQt.png 
http://lookpic.com/O/i2/1971/UsACwVKc.png 
http://lookpic.com/O/i2/1284/CLEtReu4.png 
http://lookpic.com/O/i2/1380/QKd55RV2.png